<?xml version="1.0" encoding="utf-8"?>
<!-- Generator: Adobe Illustrator 16.0.0, SVG Export Plug-In . SVG Version: 6.00 Build 0)  -->
<!DOCTYPE svg PUBLIC "-//W3C//DTD SVG 1.1//EN" "http://www.w3.org/Graphics/SVG/1.1/DTD/svg11.dtd">
<svg version="1.1" xmlns="http://www.w3.org/2000/svg" xmlns:xlink="http://www.w3.org/1999/xlink" x="0px" y="0px"
	 width="524.409px" height="254.211px" viewBox="0 0 524.409 254.211" enable-background="new 0 0 524.409 254.211"
	 xml:space="preserve">
<g id="网格">
</g>
<g id="图层_1" display="none">
</g>
<g id="桌面" display="none">
</g>
<g id="辅助线" display="none">
</g>
<g id="Page_1">
	<g id="图层_1_1_">
	</g>
	<g>
		<g>
			<path fill-rule="evenodd" clip-rule="evenodd" fill="none" stroke="#FFFFFF" stroke-miterlimit="10" d="M61.143,202.638
				l-2.658-6.312l-8.264,0.033l-2.536,6.159l-2.678,0.119l0.088-0.232l8.026-19.209l2.506-0.11l8.042,19.319l0.046,0.081
				l-0.007,0.151H61.143z M51.25,194.017l6.303-0.073l-3.222-7.641L51.25,194.017z"/>
			<path fill-rule="evenodd" clip-rule="evenodd" fill="none" stroke="#FFFFFF" stroke-miterlimit="10" d="M85.416,203.457
				c-0.934,0-1.807-0.165-2.596-0.49c-0.848-0.354-1.611-0.869-2.213-1.492c-0.68-0.655-1.178-1.384-1.518-2.232
				c-0.338-0.782-0.503-1.643-0.503-2.622v-9.246l0.147-0.126h2.162l0.106,0.18v9.192c0,0.632,0.104,1.193,0.317,1.712
				c0.285,0.606,0.601,1.074,0.967,1.43c0.43,0.444,0.893,0.744,1.455,0.946c0.498,0.235,1.075,0.358,1.674,0.358
				c0.602,0,1.166-0.116,1.721-0.357c0.548-0.213,1.014-0.521,1.423-0.943c0.431-0.4,0.771-0.909,0.958-1.434
				c0.227-0.557,0.337-1.116,0.337-1.712v-9.246l0.157-0.126h2.148l0.111,0.18v15.086l-0.166,0.124h-2.148l-0.103-0.18v-0.733
				c-0.483,0.566-1.147,0.977-1.884,1.254C87.202,203.3,86.367,203.457,85.416,203.457z"/>
			<path fill-rule="evenodd" clip-rule="evenodd" fill="none" stroke="#FFFFFF" stroke-miterlimit="10" d="M115.666,203.457
				c-1.192,0-2.29-0.204-3.264-0.608c-1.011-0.416-1.912-1.034-2.758-1.883c-0.781-0.763-1.391-1.664-1.863-2.757
				c-0.416-0.978-0.617-2.046-0.617-3.261c0-1.22,0.201-2.291,0.617-3.276c0.457-1.059,1.067-1.957,1.865-2.746
				c0.889-0.853,1.79-1.464,2.756-1.873c1.013-0.419,2.112-0.632,3.264-0.632c1.295,0,2.451,0.242,3.529,0.742
				c0.958,0.444,1.857,1.098,2.675,1.942l-0.095-5.965l2.344-0.055l0.055,19.495l-2.344,0.057l-0.055-1.878
				c-0.699,0.854-1.598,1.512-2.578,1.99C118.045,203.227,116.892,203.457,115.666,203.457z M115.666,188.855
				c-0.879,0-1.662,0.151-2.324,0.448c-0.667,0.278-1.297,0.699-1.982,1.328c-0.646,0.677-1.066,1.303-1.324,1.975
				c-0.309,0.666-0.459,1.433-0.459,2.342c0,1.69,0.6,3.14,1.783,4.308c0.698,0.672,1.326,1.097,1.979,1.34
				c0.696,0.311,1.501,0.471,2.328,0.471c1.655,0,3.105-0.607,4.306-1.811c0.624-0.612,1.058-1.256,1.331-1.961
				c0.318-0.735,0.473-1.502,0.473-2.347c0-0.842-0.158-1.631-0.473-2.342c-0.268-0.691-0.691-1.318-1.331-1.979
				c-0.619-0.587-1.28-1.034-1.966-1.324C117.337,189.007,116.549,188.855,115.666,188.855z"/>
			<polygon fill-rule="evenodd" clip-rule="evenodd" fill="none" stroke="#FFFFFF" stroke-miterlimit="10" points="139.172,185.1 
				139.065,184.915 139.065,182.354 139.227,182.242 141.379,182.242 141.492,182.407 141.492,184.969 141.438,185.1 			"/>
			<polygon fill-rule="evenodd" clip-rule="evenodd" fill="none" stroke="#FFFFFF" stroke-miterlimit="10" points="139.172,202.638 
				139.065,202.458 139.065,187.374 139.227,187.248 141.379,187.248 141.492,187.428 141.492,202.514 141.438,202.638 			"/>
			<path fill-rule="evenodd" clip-rule="evenodd" fill="none" stroke="#FFFFFF" stroke-miterlimit="10" d="M164.894,203.457
				c-1.186,0-2.258-0.199-3.274-0.608c-1.009-0.418-1.906-1.034-2.743-1.883c-0.798-0.765-1.427-1.692-1.872-2.759
				c-0.426-1.012-0.635-2.077-0.635-3.259c0-1.185,0.209-2.256,0.635-3.275c0.438-1.049,1.051-1.948,1.873-2.747
				c0.881-0.849,1.779-1.462,2.742-1.873c1.061-0.427,2.131-0.632,3.274-0.632c1.157,0,2.259,0.213,3.271,0.632
				c1.006,0.428,1.93,1.058,2.748,1.873c0.807,0.809,1.444,1.731,1.896,2.746c0.394,0.992,0.584,2.064,0.584,3.276
				c0,1.209-0.19,2.275-0.584,3.259c-0.467,1.049-1.105,1.977-1.899,2.759c-0.775,0.815-1.701,1.451-2.745,1.883
				C167.191,203.253,166.092,203.457,164.894,203.457z M164.894,188.855c-0.866,0-1.637,0.147-2.353,0.448
				c-0.687,0.295-1.36,0.754-1.945,1.328c-0.622,0.634-1.049,1.26-1.343,1.975c-0.319,0.729-0.481,1.519-0.481,2.342
				c0,0.826,0.156,1.593,0.481,2.345c0.298,0.729,0.737,1.37,1.343,1.963c0.605,0.622,1.277,1.085,1.942,1.34
				c0.763,0.317,1.53,0.471,2.355,0.471c1.659,0,3.112-0.607,4.317-1.811c0.617-0.636,1.051-1.278,1.323-1.963
				c0.306-0.729,0.448-1.476,0.448-2.345c0-1.694-0.579-3.108-1.773-4.318c-0.689-0.623-1.327-1.045-2.002-1.326
				C166.576,189.012,165.777,188.855,164.894,188.855z"/>
			<polygon fill-rule="evenodd" clip-rule="evenodd" fill="none" stroke="#FFFFFF" stroke-miterlimit="10" points="195.08,202.638 
				194.959,202.458 194.959,183.196 195.135,183.086 211.058,183.086 211.178,183.252 211.178,185.379 211.005,185.5 197.32,185.5 
				197.375,191.694 206.873,191.64 206.998,191.803 206.998,193.941 206.818,194.065 197.32,194.065 197.375,200.251 
				211.058,200.197 211.178,200.371 211.178,202.514 211.123,202.638 			"/>
			<path fill-rule="evenodd" clip-rule="evenodd" fill="none" stroke="#FFFFFF" stroke-miterlimit="10" d="M237.433,202.638
				l-0.128-0.18v-9.186c0-0.647-0.101-1.214-0.301-1.684c-0.215-0.534-0.539-1.028-0.965-1.462
				c-0.443-0.425-0.926-0.746-1.436-0.958c-0.471-0.207-1.044-0.313-1.71-0.313c-0.67,0-1.228,0.104-1.71,0.313
				c-0.525,0.221-1.014,0.55-1.413,0.958c-0.446,0.46-0.775,0.95-0.979,1.46c-0.205,0.472-0.307,1.021-0.307,1.686v9.241
				l-0.179,0.124h-2.171l-0.093-0.18v-15.084l0.147-0.126h2.171l0.124,0.18v0.734c1.193-1.17,2.708-1.741,4.409-1.741
				c1.896,0,3.472,0.669,4.819,2.044c0.648,0.614,1.156,1.344,1.512,2.171c0.34,0.796,0.506,1.66,0.506,2.637v9.241l-0.054,0.124
				H237.433z"/>
			<path fill-rule="evenodd" clip-rule="evenodd" fill="none" stroke="#FFFFFF" stroke-miterlimit="10" d="M263.266,208.481
				c-1.844,0-3.451-0.439-4.779-1.303c-1.299-0.85-2.311-2.135-3.008-3.815l-0.031-0.074l0.021-0.135h2.307
				c0.697,1.026,1.424,1.724,2.293,2.193c0.852,0.467,1.836,0.705,2.928,0.705c0.891-0.012,1.658-0.153,2.338-0.43
				c0.732-0.27,1.365-0.643,1.936-1.138c0.59-0.507,1.025-1.087,1.328-1.77c0.314-0.602,0.512-1.243,0.574-1.855
				c-0.564,0.872-1.355,1.496-2.256,1.892c-1.119,0.47-2.389,0.705-3.773,0.705c-1.195,0-2.268-0.199-3.277-0.608
				c-1.014-0.425-1.918-1.041-2.77-1.883c-0.795-0.805-1.418-1.732-1.85-2.759c-0.416-0.996-0.62-2.063-0.62-3.259
				c0-1.201,0.204-2.271,0.62-3.275c0.416-0.993,1.037-1.916,1.848-2.747c0.885-0.834,1.816-1.462,2.771-1.873
				c1.037-0.419,2.139-0.632,3.277-0.632c1.285,0,2.436,0.242,3.512,0.742c0.986,0.458,1.887,1.11,2.674,1.942v-1.857h2.334v13.194
				c0,2.24-0.832,4.17-2.469,5.729c-0.867,0.763-1.791,1.339-2.748,1.712C265.463,208.281,264.393,208.481,263.266,208.481z
				 M263.143,188.855c-0.877,0-1.637,0.147-2.324,0.448c-0.697,0.288-1.348,0.722-1.982,1.328c-1.217,1.202-1.809,2.614-1.809,4.316
				c0,0.841,0.15,1.607,0.455,2.345c0.311,0.733,0.766,1.395,1.354,1.963c0.652,0.651,1.299,1.089,1.98,1.34
				c0.719,0.313,1.502,0.471,2.326,0.471c1.635,0,3.092-0.609,4.33-1.811c0.557-0.566,1-1.227,1.322-1.963
				c0.299-0.707,0.439-1.451,0.439-2.345c0-0.877-0.148-1.665-0.439-2.342c-0.301-0.681-0.719-1.309-1.326-1.979
				c-0.693-0.609-1.352-1.043-2.004-1.324C264.803,189.007,264.021,188.855,263.143,188.855z"/>
			<polygon fill-rule="evenodd" clip-rule="evenodd" fill="none" stroke="#FFFFFF" stroke-miterlimit="10" points="286.646,185.1 
				286.553,184.915 286.553,182.354 286.701,182.242 288.844,182.242 288.951,182.407 288.951,184.969 288.896,185.1 			"/>
			<polygon fill-rule="evenodd" clip-rule="evenodd" fill="none" stroke="#FFFFFF" stroke-miterlimit="10" points="286.646,202.638 
				286.553,202.458 286.553,187.374 286.701,187.248 288.844,187.248 288.951,187.428 288.951,202.514 288.896,202.638 			"/>
			<path fill-rule="evenodd" clip-rule="evenodd" fill="none" stroke="#FFFFFF" stroke-miterlimit="10" d="M315.221,202.638
				l-0.123-0.18v-9.186c0-1.236-0.408-2.267-1.254-3.147c-0.479-0.447-0.938-0.752-1.441-0.956
				c-0.486-0.209-1.039-0.313-1.688-0.313c-0.678,0-1.242,0.104-1.729,0.313c-0.541,0.221-1.037,0.55-1.436,0.958
				c-0.416,0.419-0.736,0.897-0.973,1.462c-0.203,0.537-0.311,1.104-0.311,1.684v9.241l-0.156,0.124h-2.152l-0.104-0.18v-15.084
				l0.158-0.126h2.152l0.102,0.18v0.734c0.525-0.584,1.186-0.988,1.871-1.241c0.789-0.333,1.656-0.5,2.576-0.5
				c1.867,0,3.484,0.688,4.799,2.045c0.635,0.603,1.152,1.332,1.535,2.168c0.322,0.873,0.477,1.735,0.477,2.639v9.241l-0.053,0.124
				H315.221z"/>
			<path fill-rule="evenodd" clip-rule="evenodd" fill="none" stroke="#FFFFFF" stroke-miterlimit="10" d="M340.941,203.457
				c-1.18,0-2.285-0.204-3.283-0.608c-1.025-0.42-1.928-1.036-2.756-1.883c-0.816-0.812-1.455-1.766-1.842-2.761
				c-0.438-1.004-0.652-2.07-0.652-3.257c0-1.19,0.215-2.261,0.652-3.276c0.381-0.977,1-1.9,1.842-2.746
				c0.873-0.849,1.773-1.46,2.756-1.873c1.041-0.419,2.143-0.632,3.283-0.632c1.16,0,2.246,0.213,3.232,0.632
				c0.994,0.409,1.906,1.022,2.781,1.873c0.846,0.858,1.475,1.782,1.873,2.747c0.426,1.053,0.633,2.125,0.633,3.275l-14.688,0.162
				c0.096,1.58,0.682,2.955,1.846,4.146c0.678,0.651,1.326,1.089,1.977,1.34c0.711,0.313,1.498,0.471,2.346,0.471
				c0.607,0,1.258-0.112,1.875-0.325c0.58-0.157,1.125-0.427,1.713-0.845c0.531-0.408,0.963-0.846,1.313-1.34
				c0.357-0.459,0.656-1.047,0.846-1.654l2.561-0.123l-0.045,0.207c-0.242,0.961-0.6,1.803-1.092,2.577
				c-0.506,0.797-1.146,1.488-1.902,2.057c-0.75,0.621-1.605,1.096-2.475,1.372C342.887,203.302,341.947,203.457,340.941,203.457z
				 M340.941,188.855c-0.695,0-1.305,0.096-1.865,0.291c-0.639,0.222-1.189,0.49-1.686,0.827c-0.547,0.411-0.975,0.83-1.342,1.309
				c-0.35,0.494-0.604,0.971-0.801,1.5l11.346-0.072c-0.18-0.513-0.432-0.967-0.789-1.428c-0.385-0.502-0.809-0.92-1.334-1.311
				c-0.463-0.316-1.008-0.586-1.66-0.827C342.227,188.951,341.615,188.855,340.941,188.855z"/>
			<path fill-rule="evenodd" clip-rule="evenodd" fill="none" stroke="#FFFFFF" stroke-miterlimit="10" d="M372.846,203.457
				c-1.195,0-2.295-0.204-3.27-0.608c-1.031-0.436-1.953-1.067-2.744-1.885c-0.826-0.803-1.459-1.73-1.879-2.757
				c-0.418-1.022-0.623-2.089-0.623-3.259c0-1.175,0.205-2.244,0.623-3.275c0.406-0.996,1.039-1.92,1.879-2.747
				c0.832-0.815,1.754-1.443,2.74-1.873c1.018-0.419,2.119-0.632,3.273-0.632c1.145,0,2.244,0.213,3.266,0.632
				c0.963,0.399,1.842,0.995,2.766,1.873c0.848,0.864,1.477,1.788,1.869,2.747c0.422,1.057,0.625,2.129,0.625,3.275v0.054
				l-0.158,0.108h-14.521c0.068,0.724,0.223,1.478,0.52,2.183c0.297,0.74,0.734,1.381,1.334,1.963
				c0.684,0.655,1.322,1.093,1.961,1.34c0.756,0.317,1.521,0.471,2.34,0.471c0.635,0,1.252-0.104,1.883-0.325
				c0.623-0.172,1.189-0.454,1.689-0.845c0.539-0.4,0.977-0.84,1.346-1.34c0.334-0.426,0.619-0.983,0.852-1.656l0.01-0.038
				l0.166-0.083h2.211l0.127,0.195c-0.229,0.95-0.594,1.792-1.121,2.589c-0.543,0.841-1.16,1.515-1.881,2.057
				c-0.855,0.677-1.643,1.115-2.477,1.372C374.809,203.302,373.865,203.457,372.846,203.457z M372.846,188.855
				c-0.674,0-1.299,0.098-1.857,0.291c-0.629,0.214-1.178,0.484-1.676,0.827c-0.545,0.404-0.971,0.819-1.334,1.309
				c-0.363,0.476-0.625,0.952-0.828,1.5l11.336-0.072c-0.186-0.527-0.43-0.982-0.766-1.428c-0.344-0.479-0.764-0.894-1.318-1.313
				c-0.555-0.362-1.092-0.625-1.688-0.823C374.131,188.951,373.52,188.855,372.846,188.855z"/>
			<path fill-rule="evenodd" clip-rule="evenodd" fill="none" stroke="#FFFFFF" stroke-miterlimit="10" d="M396.373,202.638
				l-0.115-0.18v-15.084l0.17-0.126h2.131l0.111,0.18v0.353c0.164-0.186,0.477-0.3,0.793-0.366c0.338-0.114,0.68-0.166,1.109-0.166
				h0.914l0.102,0.18v2.146l-0.156,0.119h-0.859c-0.516,0-0.98,0.191-1.35,0.551c-0.197,0.2-0.334,0.397-0.426,0.622
				c-0.059,0.167-0.127,0.433-0.127,0.728v10.921l-0.055,0.124H396.373z"/>
			<polygon fill-rule="evenodd" clip-rule="evenodd" fill="none" stroke="#FFFFFF" stroke-miterlimit="10" points="416.584,185.1 
				416.465,184.915 416.465,182.354 416.641,182.242 418.787,182.242 418.887,182.407 418.887,184.969 418.83,185.1 			"/>
			<polygon fill-rule="evenodd" clip-rule="evenodd" fill="none" stroke="#FFFFFF" stroke-miterlimit="10" points="416.584,202.638 
				416.465,202.458 416.465,187.374 416.641,187.248 418.787,187.248 418.887,187.428 418.887,202.514 418.83,202.638 			"/>
			<path fill-rule="evenodd" clip-rule="evenodd" fill="none" stroke="#FFFFFF" stroke-miterlimit="10" d="M445.158,202.638
				l-0.102-0.18v-9.186c0-0.554-0.111-1.122-0.33-1.686c-0.229-0.555-0.543-1.034-0.961-1.46c-0.414-0.41-0.908-0.741-1.428-0.958
				c-0.494-0.209-1.053-0.313-1.717-0.313c-0.652,0-1.197,0.101-1.717,0.313c-0.49,0.21-0.965,0.532-1.406,0.958
				c-0.434,0.417-0.756,0.894-0.971,1.46c-0.211,0.466-0.311,1.016-0.311,1.686v9.241l-0.189,0.124h-2.141l-0.088-0.18v-15.084
				l0.143-0.126h2.141l0.135,0.055v0.859c0.484-0.57,1.162-0.986,1.873-1.241c0.787-0.333,1.641-0.5,2.531-0.5
				c1.887,0,3.514,0.688,4.834,2.044c0.648,0.626,1.16,1.355,1.521,2.169c0.336,0.843,0.498,1.703,0.498,2.639v9.241l-0.055,0.124
				H445.158z"/>
			<path fill-rule="evenodd" clip-rule="evenodd" fill="none" stroke="#FFFFFF" stroke-miterlimit="10" d="M470.98,208.481
				c-1.83,0-3.436-0.439-4.77-1.303c-1.309-0.86-2.285-2.11-2.982-3.815l-0.07-0.09l0.014-0.119h2.32
				c0.695,1.011,1.436,1.728,2.303,2.193c0.877,0.473,1.844,0.705,2.953,0.705c0.855-0.012,1.635-0.157,2.32-0.43
				c0.74-0.271,1.369-0.645,1.922-1.136c0.602-0.513,1.045-1.091,1.359-1.771c0.268-0.568,0.469-1.211,0.574-1.858
				c-0.592,0.883-1.387,1.503-2.268,1.895c-1.109,0.47-2.385,0.705-3.795,0.705c-1.188,0-2.256-0.199-3.262-0.608
				c-1.018-0.418-1.924-1.034-2.766-1.883c-0.828-0.823-1.471-1.776-1.859-2.761c-0.414-0.969-0.613-2.034-0.613-3.257
				c0-1.226,0.199-2.297,0.613-3.276c0.381-0.962,1.006-1.886,1.859-2.746c0.887-0.849,1.791-1.462,2.766-1.873
				c1.047-0.427,2.115-0.632,3.262-0.632c1.303,0,2.484,0.25,3.51,0.744c0.992,0.442,1.896,1.096,2.688,1.94v-1.857h2.344v13.194
				c0,1.085-0.219,2.136-0.65,3.126c-0.404,0.939-1.012,1.79-1.852,2.604c-0.832,0.763-1.758,1.339-2.746,1.712
				C473.186,208.285,472.146,208.481,470.98,208.481z M470.861,188.855c-0.859,0-1.641,0.151-2.314,0.448
				c-0.678,0.288-1.324,0.724-1.98,1.328c-0.627,0.636-1.055,1.265-1.346,1.975c-0.291,0.707-0.439,1.494-0.439,2.342
				c0,1.69,0.602,3.14,1.785,4.308c0.672,0.651,1.318,1.089,1.977,1.34c0.717,0.313,1.496,0.471,2.318,0.471
				c1.664,0,3.082-0.591,4.33-1.811c0.598-0.628,1.029-1.271,1.316-1.963c0.307-0.737,0.459-1.504,0.459-2.345
				c0-0.838-0.154-1.625-0.459-2.342c-0.281-0.673-0.701-1.302-1.316-1.979c-0.631-0.582-1.297-1.029-1.977-1.324
				C472.533,189.007,471.742,188.855,470.861,188.855z"/>
		</g>
		<polygon fill-rule="evenodd" clip-rule="evenodd" fill="none" stroke="#FFFFFF" stroke-miterlimit="10" points="261.391,45.729 
			479.348,45.729 479.348,47.712 479.348,48.381 261.391,48.381 261.391,47.712 261.391,45.924 261.391,45.729 		"/>
		<polygon fill-rule="evenodd" clip-rule="evenodd" fill="none" stroke="#FFFFFF" stroke-miterlimit="10" points="45.086,161.521 
			325.17,161.521 325.17,162.184 325.17,164.176 45.086,164.176 45.086,162.184 45.086,161.745 45.086,161.521 		"/>
		<g>
			<path fill-rule="evenodd" clip-rule="evenodd" fill="none" stroke="#FFFFFF" stroke-miterlimit="10" d="M150.367,139.948
				c-6.041,0-10.654-1.556-13.715-4.619c-3.047-3.072-4.592-7.72-4.592-13.814V87.766h8.262v33.749c0,5.03,0.885,8.839,2.625,11.319
				c1.732,2.42,4.35,3.651,7.775,3.651c2.201,0,4.256-0.599,6.105-1.775c1.813-1.146,3.416-2.889,4.901-5.331
				c0.839-1.448,1.517-2.877,2.069-4.359c0.584-1.517,1.035-3.08,1.385-4.786l-0.004-32.468h8.31v50.962h-8.31v-7.413
				c-1.715,2.641-3.703,4.692-5.913,6.105C156.662,139.097,153.67,139.948,150.367,139.948z"/>
			<path fill-rule="evenodd" clip-rule="evenodd" fill="none" stroke="#FFFFFF" stroke-miterlimit="10" d="M107.1,148.255
				c-2.655-2.635-4.994-4.753-7.147-6.472c-2.39-1.851-4.428-3.2-6.229-4.127c-2.043-1.079-4.281-1.908-6.842-2.539
				c-2.45-0.547-5.064-0.824-7.765-0.824c-4.982,0-9.566-0.858-13.624-2.547c-4.064-1.685-7.771-4.262-11.014-7.659
				c-3.123-3.318-5.49-7.073-7.037-11.156c-1.563-4.082-2.355-8.62-2.355-13.484c0-4.837,0.792-9.373,2.355-13.487
				c1.555-4.085,3.922-7.828,7.037-11.127c3.221-3.411,6.926-5.992,11.014-7.68c4.062-1.701,8.648-2.564,13.633-2.564
				c4.963,0,9.537,0.863,13.594,2.564c4.045,1.665,7.74,4.247,10.983,7.68c3.113,3.271,5.495,7.013,7.076,11.127
				c1.565,4.024,2.358,8.561,2.358,13.487c0,4.16-0.592,8.094-1.758,11.688c-1.164,3.617-2.947,7.035-5.305,10.166
				c-2.357,3.134-5.144,5.737-8.281,7.736c-2.457,1.588-5.205,2.843-8.17,3.738c1.761,0.223,3.402,0.482,4.893,0.771
				c2.088,0.402,4.021,0.898,5.745,1.472l0.202,0.055c2.287,0.759,4.479,1.728,6.696,2.955c2.183,1.229,4.253,2.681,6.157,4.308
				l0.368,0.363l-0.37,0.311l-5.917,5.571L107.1,148.255z M79.125,67.146c-3.897,0-7.447,0.789-10.549,2.346
				c-3.18,1.57-6.005,3.952-8.398,7.075c-2.336,3.024-4.102,6.473-5.25,10.249c-1.193,3.852-1.773,7.983-1.773,12.631
				c0,4.595,0.598,8.838,1.773,12.613c1.137,3.756,2.902,7.21,5.25,10.269c2.43,3.146,5.256,5.524,8.396,7.068
				c3.117,1.579,6.667,2.377,10.551,2.377c3.863,0,7.398-0.798,10.508-2.377c3.096-1.534,5.922-3.913,8.395-7.068
				c2.328-3.048,4.096-6.504,5.256-10.267c1.148-3.789,1.731-8.034,1.731-12.615c0-4.635-0.567-8.768-1.731-12.631
				c-1.172-3.785-2.939-7.233-5.256-10.249c-2.436-3.134-5.262-5.514-8.395-7.075C86.536,67.935,83.002,67.146,79.125,67.146z"/>
			<path fill-rule="evenodd" clip-rule="evenodd" fill="none" stroke="#FFFFFF" stroke-miterlimit="10" d="M219.123,139.417
				c-7.127,0-13.297-2.571-18.336-7.644c-2.557-2.563-4.48-5.401-5.725-8.436c-1.268-3.073-1.91-6.459-1.91-10.064
				s0.606-6.98,1.8-10.035c1.167-3.003,2.987-5.846,5.411-8.445c2.492-2.596,5.148-4.462,8.126-5.702
				c2.964-1.275,6.269-1.923,9.814-1.923c2.671,0,5.235,0.485,7.624,1.444c2.389,0.963,4.578,2.41,6.51,4.299
				c2.048,2.009,3.499,4.096,4.436,6.38c0.998,2.328,1.503,4.891,1.503,7.611v0.451h-31.769v-3.285h23.232
				c-0.225-4.45-1.273-7.843-3.124-10.09c-1.909-2.287-4.738-3.445-8.412-3.445c-2.407,0-4.608,0.528-6.536,1.574
				c-1.964,1.064-3.695,2.66-5.146,4.742c-1.472,2.052-2.612,4.493-3.393,7.257c-0.738,2.732-1.115,5.817-1.115,9.167
				c0,3.426,0.375,6.553,1.111,9.29c0.74,2.742,1.844,5.147,3.289,7.148c1.455,2.066,3.293,3.668,5.459,4.769
				c2.113,1.053,4.543,1.586,7.217,1.586c3.022,0,5.796-0.612,8.239-1.82c2.447-1.188,4.612-3.021,6.438-5.447l0.369-0.46
				l0.357,0.46l2.376,2.892l0.269,0.302l-0.28,0.315c-2.342,2.311-5.039,4.109-8.027,5.355
				C226.012,138.826,222.713,139.417,219.123,139.417z"/>
			<path fill-rule="evenodd" clip-rule="evenodd" fill="none" stroke="#FFFFFF" stroke-miterlimit="10" d="M269.529,139.417
				c-5.803,0-10.729-1.988-14.644-5.909l-0.269-0.255l2.518-3.607l0.385-0.491l0.342,0.479c1.707,2.14,3.527,3.732,5.404,4.731
				c1.922,1.049,4.027,1.582,6.264,1.582c1.385,0,2.578-0.204,3.646-0.619c1.068-0.407,2.006-1.026,2.779-1.838
				c0.813-0.819,1.396-1.745,1.787-2.835c0.387-1.042,0.584-2.267,0.584-3.646c0-1.537-0.344-2.942-1.049-4.296
				c-0.721-1.304-1.822-2.501-3.266-3.555c0,0-3.033-2.047-4.35-2.927c-1.738-1.188-3.6-2.456-4.936-3.322
				c-2.746-1.86-4.889-3.981-6.367-6.303c-1.41-2.29-2.125-4.8-2.125-7.457c0-2.011,0.391-3.736,1.195-5.275
				c0.746-1.489,1.945-2.832,3.559-3.987c1.416-0.963,2.984-1.68,4.666-2.149c1.658-0.454,3.479-0.675,5.566-0.675
				c1.246,0,2.459,0.15,3.604,0.451c1.223,0.286,2.455,0.74,3.664,1.348c1.18,0.572,2.256,1.234,3.195,1.965
				c0.879,0.673,1.637,1.458,2.252,2.337l0.227,0.325l-0.295,0.249l-2.484,2.73l-0.338,0.441l-0.369-0.447
				c-1.469-1.952-3.078-3.46-4.793-4.484c-1.689-0.987-3.404-1.467-5.238-1.467c-2.471,0-4.393,0.498-5.711,1.481
				c-1.295,0.946-2.086,2.408-2.352,4.351c-0.16,1.638,0.145,3.085,0.932,4.421c0.773,1.367,2.035,2.643,3.861,3.9
				c2.662,1.812,4.893,3.335,6.682,4.569c1.844,1.281,3.195,2.227,3.98,2.827c2.465,1.846,4.283,3.977,5.408,6.333
				c1.143,2.331,1.594,4.945,1.342,7.773c-0.154,2.004-0.629,3.83-1.41,5.419c-0.783,1.612-1.887,3.032-3.275,4.216
				c-1.383,1.196-2.982,2.116-4.762,2.731C273.518,139.127,271.617,139.417,269.529,139.417z"/>
			<path fill-rule="evenodd" clip-rule="evenodd" fill="none" stroke="#FFFFFF" stroke-miterlimit="10" d="M325.084,138.728
				c-5.617,0-9.912-1.416-12.758-4.206c-2.842-2.777-4.283-6.987-4.283-12.511V91.049h-4.678v-3.283h4.678v-5.798h8.283v5.798h9.553
				v3.283h-9.553v30.962c0,2.416,0.172,4.559,0.512,6.365c0.352,1.717,0.848,3.083,1.479,4.051c0.674,0.967,1.561,1.686,2.633,2.128
				c1.133,0.503,2.484,0.748,4.135,0.748h0.428v3.425H325.084z"/>
			<polygon fill-rule="evenodd" clip-rule="evenodd" fill="none" stroke="#FFFFFF" stroke-miterlimit="10" points="356.959,157.767 
				357.186,157.138 365.291,136.976 343.611,87.37 352.654,87.37 352.865,87.458 352.953,87.63 369.725,126.181 385.146,87.646 
				385.283,87.37 388.813,87.37 388.564,88.012 360.627,157.481 360.492,157.767 			"/>
			
				<rect x="406.244" y="60.762" fill-rule="evenodd" clip-rule="evenodd" fill="none" stroke="#FFFFFF" stroke-miterlimit="10" width="8.219" height="77.966"/>
			<path fill-rule="evenodd" clip-rule="evenodd" fill="none" stroke="#FFFFFF" stroke-miterlimit="10" d="M460.105,139.417
				c-7.109,0-13.283-2.571-18.352-7.644c-2.537-2.535-4.457-5.376-5.713-8.436c-1.264-3.113-1.904-6.498-1.904-10.064
				c0-3.634,0.604-7.009,1.801-10.035c1.191-3.044,3.018-5.887,5.434-8.445c2.414-2.551,5.145-4.468,8.115-5.702
				c2.957-1.275,6.246-1.923,9.771-1.923c2.717,0,5.293,0.485,7.66,1.446c2.379,0.969,4.566,2.416,6.502,4.297
				c2.014,1.96,3.467,4.048,4.438,6.378c0.988,2.3,1.49,4.862,1.49,7.613v0.451H447.58v-3.285h23.221
				c-0.184-4.438-1.23-7.832-3.105-10.09c-1.91-2.287-4.752-3.445-8.438-3.445c-2.379,0-4.566,0.528-6.5,1.574
				c-1.951,1.058-3.639,2.611-5.156,4.742c-1.465,2.04-2.6,4.482-3.377,7.257c-0.742,2.76-1.119,5.846-1.119,9.167
				c0,3.436,0.373,6.561,1.102,9.29c0.736,2.724,1.844,5.126,3.297,7.148c1.5,2.103,3.273,3.663,5.43,4.769
				c2.152,1.051,4.592,1.586,7.246,1.586c3.004,0,5.781-0.612,8.244-1.82c2.436-1.188,4.607-3.021,6.453-5.447l0.355-0.471
				l0.342,0.475l2.361,2.889l0.299,0.301l-0.316,0.322c-2.375,2.36-4.994,4.107-8.016,5.349
				C466.99,138.826,463.695,139.417,460.105,139.417z"/>
		</g>
	</g>
</g>
</svg>
